<svg width="28" height="27" viewBox="0 0 28 27" fill="none" xmlns="http://www.w3.org/2000/svg">
<path d="M23.9668 26.426H3.38014C2.93242 26.3237 2.70856 26.0753 2.69289 25.6566C2.6817 25.2696 2.67797 24.8826 2.69289 24.4963C2.70782 24.1489 2.88019 23.8703 3.25329 23.7525C3.49132 23.6771 3.53012 23.5506 3.52938 23.3527C3.5239 21.5614 3.5239 19.7701 3.52938 17.9788C3.52938 16.4402 3.52938 14.9013 3.52938 13.3622C3.52938 13.272 3.55176 13.1778 3.50401 13.0889C3.40924 13.0593 3.37268 13.1347 3.32044 13.1731C3.00887 13.4063 2.6147 13.5307 2.20989 13.5235C1.80508 13.5163 1.41663 13.3781 1.11544 13.134C0.537146 12.6555 0.449841 11.7879 0.914719 11.17C1.02774 11.015 1.16496 10.8756 1.32214 10.756C1.81313 10.3912 2.23399 9.96315 2.69066 9.5667C3.58982 8.78526 4.47555 7.99103 5.37172 7.20689C6.70293 6.04247 8.02667 4.87131 9.36086 3.71025C10.4272 2.78275 11.4718 1.83573 12.5508 0.918997C12.7838 0.725752 13.081 0.607427 13.3963 0.582458H13.9552C14.388 0.594574 14.6835 0.821402 14.9775 1.07852C16.3131 2.24833 17.6563 3.41073 18.9785 4.59198C19.0063 4.61993 19.0446 4.63767 19.086 4.64179C19.086 4.24602 19.0912 3.85698 19.08 3.46794C19.08 3.36564 18.9972 3.32727 18.9009 3.30304C18.4002 3.1765 18.2189 2.83794 18.1958 2.40987C18.1779 2.08275 18.1883 1.75496 18.1958 1.42717C18.1985 1.29236 18.2286 1.15913 18.2846 1.03409C18.4114 0.74669 18.6502 0.612747 19.0308 0.608708H23.3624C23.7795 0.641689 24.0482 0.864479 24.0914 1.27169C24.1366 1.71476 24.1366 2.16064 24.0914 2.60371C24.0594 2.92679 23.8594 3.17852 23.5027 3.27208C23.2654 3.33467 23.1953 3.45246 23.2117 3.65641C23.2239 3.80725 23.2226 3.95873 23.2079 4.10939C23.1856 4.33689 23.0781 4.50987 22.8177 4.58054C22.4319 4.5866 22.3349 4.52737 22.2252 4.22583C22.2118 3.99968 22.217 3.77285 22.22 3.54602C22.22 3.40333 22.176 3.3266 21.9961 3.32794C21.4469 3.32794 20.8977 3.33333 20.3485 3.33198C20.1612 3.33198 20.0777 3.40804 20.0777 3.57631C20.0777 4.16413 20.0777 4.75195 20.0777 5.33977C20.0777 5.50737 20.1792 5.62045 20.3015 5.72949C20.9209 6.2868 21.5275 6.85555 22.2073 7.37853C22.2245 6.87709 22.2073 6.37968 22.2215 5.88295C22.3297 5.57804 22.4267 5.51881 22.8102 5.52285C23.1251 5.60699 23.2087 5.82574 23.2102 6.08891C23.2139 6.70276 23.2221 7.3166 23.2102 7.93045C23.2035 8.19632 23.2848 8.40161 23.5087 8.57257C24.3795 9.23353 25.1115 10.0257 25.9711 10.6988C26.436 11.063 26.768 11.4931 26.7382 12.0914C26.7098 12.6757 26.4203 13.101 25.8472 13.3642C25.2742 13.6274 24.6951 13.5836 24.1496 13.2632C24.0579 13.2094 23.9937 13.1172 23.8743 13.0957C23.7945 13.1764 23.828 13.2727 23.828 13.3602C23.828 16.6731 23.826 19.986 23.8221 23.2988C23.8221 23.5391 23.8862 23.6791 24.1534 23.774C24.4839 23.8911 24.6414 24.1597 24.6578 24.4754C24.6794 24.8792 24.6779 25.2831 24.6578 25.6869C24.6377 26.0908 24.4078 26.3237 23.9668 26.426Z" fill="black"/>
<path d="M18.9092 0.626876C18.9089 0.618633 18.9108 0.610443 18.9149 0.603041C18.9189 0.59564 18.9249 0.58926 18.9323 0.584473H23.4095L23.414 0.633607L18.9092 0.626876Z" fill="#121212"/>
<path d="M8.92497 13.06C8.87422 12.7982 8.68618 12.7019 8.4086 12.7033C7.73703 12.7073 7.07068 12.708 6.40209 12.7093C6.28046 12.5424 6.4297 12.4327 6.5267 12.3391C6.91479 11.9543 7.32449 11.5877 7.75419 11.2407C7.82433 11.1861 7.90343 11.1357 7.96387 11.0751C9.10927 10.0083 10.3159 8.99662 11.4919 7.95806C12.2381 7.30047 12.9663 6.63075 13.726 5.98797C14.0379 5.72412 14.3498 5.46094 14.6565 5.19171C14.7206 5.1345 14.7803 5.06114 14.8908 5.07998C15.8016 5.87421 16.7125 6.66845 17.6233 7.46268C19.3276 8.95691 21.0314 10.4514 22.7347 11.9461C22.7968 11.9944 22.846 12.0547 22.8788 12.1225C22.9116 12.1903 22.9272 12.2639 22.9243 12.3378C22.9188 16.0541 22.9188 19.7704 22.9243 23.4866C22.9243 23.6933 22.8713 23.7505 22.6355 23.7498C19.5791 23.7417 16.5224 23.7417 13.4655 23.7498C13.2171 23.7498 13.1417 23.7027 13.1424 23.4658C13.1514 20.1785 13.1534 16.8909 13.1484 13.6032C13.1484 12.918 12.9089 12.7039 12.144 12.7039C11.6314 12.7039 11.1188 12.7039 10.6061 12.7039C10.233 12.7039 10.1353 12.7712 10.0278 13.091C9.65623 13.2175 9.28612 13.2599 8.92497 13.06Z" fill="#DEEAF9"/>
<path d="M14.8908 5.08C14.5087 5.37346 14.161 5.70125 13.7984 6.01222C12.6985 6.95452 11.6284 7.92376 10.545 8.88155C9.68163 9.64549 8.82874 10.4209 7.94599 11.1646C7.51096 11.5315 7.0916 11.9111 6.66478 12.2853C6.53271 12.4011 6.3969 12.5216 6.40212 12.7093C5.97008 12.844 5.81934 13.1199 5.82009 13.5217C5.8283 16.8346 5.82009 20.1475 5.83054 23.4597C5.83054 23.6879 5.77383 23.7694 5.51191 23.7498C5.21367 23.7346 4.91472 23.7346 4.61648 23.7498C4.47396 23.7539 4.40531 23.7175 4.42471 23.5816C4.42733 23.5396 4.42733 23.4976 4.42471 23.4557C4.42471 19.7645 4.42297 16.0736 4.41949 12.3829C4.41556 12.2969 4.43295 12.2112 4.47038 12.132C4.50782 12.0528 4.56436 11.9822 4.63589 11.9252C7.58732 9.34238 10.5333 6.75552 13.4738 4.16462C13.6462 4.0125 13.7305 4.02596 13.8827 4.17337C14.2073 4.48366 14.5535 4.77846 14.8908 5.08Z" fill="#B0DAFB"/>
<path d="M8.35804 15.3202C9.66313 15.3114 10.9697 15.2932 12.2741 15.3296C12.3255 15.4077 12.3009 15.4938 12.3009 15.5759C12.3009 18.1982 12.3009 20.8201 12.3009 23.4415C12.3009 23.7262 12.3009 23.7269 11.9845 23.7269H8.60503C8.317 23.7269 8.28715 23.7006 8.26999 23.4455C8.26551 23.3782 8.26999 23.3109 8.26999 23.2436C8.26999 20.7564 8.26999 18.2689 8.26999 15.7812C8.26849 15.6224 8.23566 15.4548 8.35804 15.3202Z" fill="#AA6B51"/>
<path d="M14.0604 3.26338C13.7111 3.02175 13.5716 3.03184 13.2463 3.31656C9.79189 6.3481 6.33777 9.37987 2.8839 12.4119C2.7063 12.568 2.52349 12.704 2.2571 12.702C2.11934 12.7036 1.98386 12.6702 1.86615 12.6056C1.74844 12.541 1.65324 12.4479 1.59144 12.3368C1.52964 12.2257 1.50373 12.1012 1.51667 11.9775C1.52961 11.8538 1.58088 11.7358 1.66462 11.6371C1.73636 11.5598 1.81389 11.4869 1.89669 11.4191L13.0411 1.63723C13.4888 1.24482 13.8567 1.24078 14.2962 1.6278C14.5827 1.88021 14.8633 2.13732 15.1468 2.39242C14.9148 2.60377 14.6051 2.72896 14.3939 2.96723C14.3012 3.08157 14.1886 3.18159 14.0604 3.26338Z" fill="#FE4756"/>
<path d="M5.73376 24.513C5.83599 24.509 5.93822 24.5023 6.04045 24.5023C11.8304 24.5023 17.6201 24.5003 23.4096 24.4962C23.6752 24.4962 23.7744 24.546 23.7461 24.7964C23.7271 25.0314 23.7271 25.2674 23.7461 25.5025C23.7528 25.6371 23.6961 25.6862 23.5536 25.6694C23.5255 25.6677 23.4973 25.6677 23.4693 25.6694H5.95762C5.883 25.6694 5.80838 25.6633 5.73376 25.6606C5.58582 25.2897 5.58582 24.8839 5.73376 24.513Z" fill="#43CA8D"/>
<path d="M14.0603 3.26336C14.3147 2.87925 14.694 2.57514 15.1468 2.3924C16.2715 3.37285 17.3963 4.35374 18.521 5.33509C20.8392 7.36689 23.1564 9.40003 25.4726 11.4345C25.671 11.6089 25.8457 11.7859 25.8337 12.0591C25.8308 12.1749 25.7941 12.288 25.7272 12.3869C25.6604 12.4858 25.5658 12.5671 25.453 12.6224C25.3402 12.6778 25.2132 12.7054 25.0849 12.7023C24.9565 12.6992 24.8313 12.6657 24.7219 12.605C24.6438 12.5595 24.5715 12.5065 24.5062 12.4468C21.0534 9.41798 17.6012 6.38913 14.1498 3.36028C14.1182 3.3294 14.0883 3.29705 14.0603 3.26336Z" fill="#FE656F"/>
<path d="M8.35815 15.3202C8.35815 18.0174 8.35641 20.7145 8.35293 23.4113C8.35293 23.6394 8.41561 23.7108 8.67678 23.7074C9.77517 23.6944 10.8741 23.6944 11.9735 23.7074C12.2309 23.7074 12.2786 23.6327 12.2779 23.42C12.2704 20.7228 12.2692 18.0257 12.2742 15.3289C12.36 15.3962 12.3197 15.4864 12.3197 15.5652C12.3197 18.2063 12.3197 20.8468 12.3272 23.4873C12.3272 23.6953 12.2689 23.7565 12.0332 23.7565C10.3368 23.7467 8.64046 23.7453 6.94412 23.7525C6.72026 23.7525 6.6643 23.6933 6.66505 23.4974C6.67151 20.8567 6.67151 18.216 6.66505 15.5753C6.66505 15.3653 6.72773 15.3 6.96352 15.306C7.42616 15.3242 7.89253 15.3161 8.35815 15.3202Z" fill="#955A44"/>
<path d="M8.92496 13.0599C9.29134 13.1272 9.66146 13.0714 10.0293 13.0916C10.0928 13.3696 10.2875 13.4712 10.5949 13.4638C11.0971 13.4523 11.6008 13.4597 12.1037 13.4638C12.1925 13.4638 12.3127 13.4416 12.3089 13.5701C12.3007 13.8858 12.3582 14.2042 12.2754 14.5178C12.2075 14.5569 12.1314 14.5414 12.0582 14.5414H8.6041C8.3198 14.5414 8.28548 14.5131 8.27205 14.2594C8.26309 14.1005 8.27205 13.941 8.27205 13.7815C8.27205 13.5876 8.33398 13.453 8.5847 13.4645C8.68417 13.4423 8.77221 13.3901 8.83413 13.3165C8.89606 13.2428 8.92812 13.1523 8.92496 13.0599Z" fill="#BB7B62"/>
<path d="M22.2798 5.88496V7.55487C21.9985 7.31997 21.7515 7.12141 21.5142 6.91343C21.0665 6.52237 20.6292 6.12256 20.18 5.73285C20.1211 5.68648 20.0745 5.62878 20.0437 5.56402C20.0128 5.49925 19.9985 5.42906 20.0017 5.35862C20.0106 4.74612 20.0121 4.13361 20.0017 3.52111C20.0017 3.32659 20.0591 3.25188 20.286 3.25929C20.871 3.2714 21.4575 3.26871 22.0432 3.25929C22.2425 3.25525 22.3037 3.31582 22.2925 3.48948C22.2768 3.73179 22.2835 3.97544 22.2805 4.21842C22.1022 4.15111 22.1596 4.0091 22.1574 3.89534C22.144 3.34073 22.232 3.38919 21.5493 3.38111C21.3366 3.38111 21.2463 3.44842 21.2508 3.64361C21.2582 4.29112 21.2508 4.93862 21.2508 5.58612C21.2493 5.67476 21.2673 5.76278 21.3037 5.84514C21.34 5.92749 21.3941 6.00256 21.4627 6.06602C21.6731 6.26795 21.8948 6.45977 22.1485 6.69198C22.1574 6.47929 22.144 6.30631 22.1567 6.13468C22.1634 6.04045 22.132 5.92468 22.2798 5.88496Z" fill="#544E55"/>
<path d="M22.2798 5.88498C22.1724 6.18315 22.2723 6.49479 22.2209 6.80104C21.9067 6.53181 21.5933 6.27738 21.3008 6.00344C21.204 5.89935 21.1558 5.7654 21.1665 5.62988C21.1725 4.93392 21.1769 4.23796 21.1665 3.54334C21.1665 3.34613 21.2411 3.29363 21.4433 3.31045C21.6911 3.33132 22.0045 3.22026 22.1731 3.3542C22.3417 3.48815 22.2104 3.78228 22.235 4.00372C22.2425 4.07709 22.2134 4.15651 22.282 4.21844C22.3417 4.47488 22.5372 4.5469 22.7992 4.52738C22.7628 4.5435 22.7326 4.56915 22.7127 4.60097C22.6927 4.63279 22.6838 4.66931 22.6872 4.70574C22.6954 4.93661 22.6962 5.16815 22.6872 5.39902C22.685 5.43536 22.6945 5.47151 22.7147 5.50306C22.7348 5.5346 22.7647 5.56019 22.8007 5.57671C22.5343 5.5545 22.3395 5.62786 22.2798 5.88498Z" fill="#695D67"/>
<path d="M20.2747 1.3511C21.1775 1.3511 22.0812 1.34773 22.9848 1.341C23.1236 1.341 23.187 1.37129 23.1826 1.50927C23.1729 1.78658 23.1736 2.06389 23.1826 2.3412C23.1863 2.47581 23.1259 2.51283 22.9856 2.51149C22.0633 2.50408 21.1417 2.50274 20.2194 2.4987C20.0605 2.14802 20.1262 1.78995 20.1777 1.43321C20.1844 1.39081 20.2336 1.36995 20.2747 1.3511Z" fill="#7A6C78"/>
<path d="M5.73357 24.5131C5.73357 24.8954 5.73357 25.2768 5.73357 25.6573C5.08364 25.6573 4.43296 25.6573 3.78303 25.6681C3.65394 25.6681 3.60021 25.6344 3.60394 25.5119C3.6114 25.2265 3.61066 24.9418 3.60394 24.6564C3.60394 24.5353 3.65244 24.4969 3.78228 24.4983C4.43371 24.5084 5.08364 24.5097 5.73357 24.5131Z" fill="#00B966"/>
<path d="M8.58191 13.4618C8.41252 13.5056 8.32671 13.589 8.35805 13.7647C8.39536 14.0023 8.24537 14.3099 8.42222 14.4667C8.58638 14.6121 8.91993 14.5084 9.17811 14.5105C10.2116 14.5165 11.2451 14.5145 12.2785 14.5152C12.2039 14.5872 12.1032 14.5535 12.0151 14.5542C10.331 14.5542 8.64683 14.5495 6.96342 14.5542C6.73434 14.5542 6.64554 14.5051 6.66494 14.2904C6.68024 14.0808 6.68024 13.8706 6.66494 13.661C6.65822 13.5157 6.70001 13.451 6.87984 13.4544C7.44695 13.4665 8.0148 13.4611 8.58191 13.4618Z" fill="#AA6A50"/>
<path d="M20.2746 1.35112C20.156 1.72939 20.2485 2.11641 20.2194 2.49535C19.9149 2.49872 19.6097 2.49535 19.3046 2.50679C19.1635 2.51083 19.1053 2.46708 19.1091 2.33516C19.1158 2.05987 19.1165 1.78391 19.1091 1.50862C19.1053 1.374 19.1635 1.33429 19.3046 1.33766C19.6269 1.34977 19.9508 1.34843 20.2746 1.35112Z" fill="#685C66"/>
<path d="M21.5216 17.6659C21.5216 19.0363 21.5216 20.4069 21.5216 21.7777C21.5216 22.3761 21.2747 22.5962 20.6098 22.5962H15.1014C14.4634 22.5962 14.1978 22.3613 14.197 21.7885C14.197 19.0302 14.197 16.2724 14.197 13.515C14.197 12.947 14.4716 12.7033 15.1022 12.7033C16.9477 12.7033 18.7931 12.7033 20.6381 12.7033C21.2508 12.7033 21.5209 12.947 21.5216 13.5029C21.5231 14.8913 21.5231 16.2789 21.5216 17.6659Z" fill="black"/>
<path d="M11.7203 18.9945C11.721 19.1442 11.6886 19.2925 11.6249 19.4306C11.5611 19.5688 11.4674 19.6941 11.3492 19.7992C11.231 19.9042 11.0908 19.9869 10.9366 20.0423C10.7825 20.0977 10.6177 20.1248 10.4518 20.1219C10.1176 20.1175 9.79878 19.9942 9.56474 19.779C9.3307 19.5637 9.20031 19.2738 9.20192 18.9723C9.2117 18.6746 9.34858 18.3919 9.58398 18.183C9.81937 17.9742 10.1351 17.8555 10.4652 17.8516C10.6309 17.8522 10.7947 17.8823 10.9475 17.9401C11.1002 17.9979 11.2388 18.0823 11.3554 18.1884C11.472 18.2945 11.5642 18.4204 11.6268 18.5587C11.6894 18.697 11.7212 18.8451 11.7203 18.9945Z" fill="black"/>
<path d="M20.683 16.7498C20.683 17.161 20.677 17.5723 20.683 17.9835C20.683 18.1363 20.6583 18.2056 20.4591 18.2016C19.7987 18.1895 19.1376 18.1929 18.4772 18.2016C18.3183 18.2016 18.2705 18.1599 18.272 18.0172C18.278 17.1776 18.278 16.3381 18.272 15.4985C18.272 15.3639 18.3011 15.302 18.4705 15.304C19.1406 15.3116 19.8107 15.3116 20.4807 15.304C20.6427 15.304 20.6852 15.3525 20.6822 15.4918C20.677 15.9098 20.683 16.3298 20.683 16.7498Z" fill="#60B7FD"/>
<path d="M20.6827 20.3939C20.6827 20.8051 20.676 21.2164 20.6827 21.627C20.6872 21.7818 20.6536 21.847 20.4588 21.8437C19.7985 21.8322 19.1381 21.8356 18.4777 21.8437C18.3195 21.8437 18.271 21.8019 18.2725 21.6586C18.2785 20.8199 18.2785 19.9808 18.2725 19.1413C18.2725 19.0067 18.3068 18.9508 18.4717 18.9528C19.1418 18.9604 19.8116 18.9604 20.4812 18.9528C20.6402 18.9528 20.6864 18.9945 20.6827 19.1366C20.6767 19.5545 20.6827 19.9739 20.6827 20.3939Z" fill="#60B7FD"/>
<path d="M16.7445 18.1888C16.2333 18.1888 15.723 18.1888 15.2126 18.1996C15.0827 18.1996 15.032 18.1673 15.0327 18.0441C15.0372 17.1893 15.0372 16.3345 15.0327 15.4797C15.0327 15.3511 15.0745 15.3013 15.2223 15.304C15.714 15.3141 16.2057 15.3154 16.6982 15.3202C16.7601 15.3947 16.7895 15.4871 16.7811 15.58C16.7863 16.4011 16.7811 17.2229 16.7811 18.0441C16.7841 18.0945 16.7715 18.1446 16.7445 18.1888Z" fill="#23A7FD"/>
<path d="M16.6982 21.8281C16.2058 21.8322 15.7133 21.8281 15.2208 21.8416C15.0715 21.845 15.0312 21.7958 15.032 21.6673C15.037 20.8201 15.037 19.9727 15.032 19.1251C15.032 18.9958 15.0723 18.9487 15.2208 18.9521C15.7133 18.9615 16.2058 18.9608 16.6982 18.9635C16.7915 19.0524 16.7826 19.1654 16.7833 19.2731C16.7863 20.0216 16.7863 20.7701 16.7833 21.5185C16.7833 21.6269 16.7893 21.7393 16.6982 21.8281Z" fill="#23A7FD"/>
<path d="M20.6627 13.5029C20.7 13.8403 20.697 14.1804 20.6537 14.5172C20.5845 14.5426 20.5088 14.5503 20.4351 14.5394H16.9422C16.6549 14.5394 16.6235 14.5112 16.6056 14.2588C16.5519 13.4814 16.5519 13.4814 17.3973 13.4814C18.3848 13.4814 19.3723 13.4814 20.3597 13.4814C20.4642 13.482 20.5642 13.4618 20.6627 13.5029Z" fill="#23A7FC"/>
<path d="M20.6625 13.5029C19.4336 13.5029 18.2046 13.509 16.9756 13.5029C16.7592 13.5029 16.6682 13.552 16.692 13.756C16.7103 13.9065 16.7103 14.0584 16.692 14.209C16.6615 14.4466 16.748 14.5253 17.0241 14.5219C18.1598 14.5078 19.2955 14.5159 20.4312 14.5159C20.5058 14.5159 20.5805 14.5159 20.6551 14.5159C20.5857 14.5832 20.4969 14.5489 20.4178 14.5489C18.715 14.5489 17.0122 14.5455 15.3086 14.5536C15.0847 14.5536 15.0146 14.4943 15.0318 14.2978C15.049 14.0962 15.049 13.8937 15.0318 13.692C15.0146 13.5009 15.0892 13.4524 15.2974 13.4538C16.8331 13.4612 18.3687 13.4538 19.9044 13.4605C20.1551 13.4645 20.4148 13.404 20.6625 13.5029Z" fill="#0192F8"/>
<path d="M16.6982 21.8282V18.9635C17.4392 18.9245 17.4392 18.9245 17.4392 19.5774C17.4392 20.2659 17.4347 20.9552 17.4429 21.6437C17.4429 21.7945 17.4056 21.8578 17.228 21.8423C17.0504 21.8268 16.8751 21.8322 16.6982 21.8282Z" fill="#5FB7FD"/>
<path d="M16.7445 18.1888C16.7007 18.105 16.6841 18.0116 16.6968 17.9196C16.6968 17.0531 16.6968 16.1869 16.6968 15.3208C17.4385 15.2609 17.4385 15.2609 17.4385 15.903C17.4385 16.5896 17.4318 17.2761 17.443 17.9627C17.443 18.1424 17.4086 18.2285 17.1878 18.2009C17.0404 18.1892 16.8924 18.1851 16.7445 18.1888Z" fill="#5FB7FD"/>
<path d="M10.4533 19.3647C10.3415 19.3614 10.2358 19.3182 10.1593 19.2446C10.0827 19.171 10.0417 19.0731 10.0451 18.9723C10.0535 18.8758 10.101 18.7855 10.1784 18.7186C10.2559 18.6517 10.358 18.6128 10.4652 18.6095C10.577 18.6111 10.6835 18.6526 10.7614 18.7249C10.8393 18.7972 10.8823 18.8944 10.8809 18.9952C10.8809 19.0451 10.8697 19.0945 10.8481 19.1404C10.8264 19.1863 10.7946 19.2278 10.7546 19.2623C10.7146 19.2969 10.6673 19.3237 10.6156 19.3413C10.5638 19.3589 10.5086 19.3669 10.4533 19.3647Z" fill="#DCE8F7"/>
</svg>
